<svg xmlns="http://www.w3.org/2000/svg" fill="none" width="21" height="21" viewBox="0 0 21 21">
<symbol id="floppy" fill="currentColor">
  <path d="M0 0h1.61v1.61H0zm0 1.61h1.61v1.62H0zm0 1.62h1.61v1.62H0zm0 1.62h1.61v1.61H0zm0 1.61h1.61v1.62H0zm0 1.62h1.61v1.61H0zm0 1.61h1.61v1.62H0zm0 1.62h1.61v1.61H0zm0 1.61h1.61v1.62H0zm0 1.62h1.61v1.61H0zm0 1.61h1.61v1.62H0zm0 1.62h1.61v1.61H0zm0 1.62h1.61V21H0zM17.77 0v1.61h-1.62V0zm-1.62 0v1.61h-1.61V0zm-1.61 0v1.61h-1.62V0zm-1.62 0v1.61h-1.61V0zm-1.61 0v1.61H9.69V0zM9.69 0v1.61H8.08V0zM8.08 0v1.61H6.46V0zM6.46 0v1.61H4.85V0zM4.85 0v1.61H3.23V0zM3.23 0v1.61H1.62V0zm16.16 1.62v1.61h-1.62V1.62zM4.85 3.23v1.62H3.23V3.23zm0-1.61v1.61H3.23V1.62zm0 3.23v1.61H3.23V4.85zm11.3-1.62v1.62h-1.61V3.23zm0-1.61v1.61h-1.61V1.62zm0 3.23v1.61h-1.61V4.85zm-3.23-1.62v1.62h-1.61V3.23zm0-1.61v1.61h-1.61V1.62zm0 3.23v1.61h-1.61V4.85zm3.23 1.61v1.62h-1.61V6.46zm-1.61 0v1.62h-1.62V6.46zm-1.62 0v1.62h-1.61V6.46zm-1.61 0v1.62H9.69V6.46zm-1.62 0v1.62H8.08V6.46zm-1.61 0v1.62H6.46V6.46zm-1.62 0v1.62H4.85V6.46zm-1.61 0v1.62H3.23V6.46zm12.92 4.85v1.61h-1.62v-1.61zm-1.62 0v1.61h-1.61v-1.61z"/>
  <path d="M14.54 11.3v1.62h-1.62v-1.61zm-1.62 0v1.62h-1.61v-1.61zm-1.61 0v1.62H9.69v-1.61zm-1.62 0v1.62H8.08v-1.61zm-1.61 0v1.62H6.46v-1.61zm-1.62 0v1.62H4.85v-1.61zm-1.61 0v1.62H3.23v-1.61zm12.92 1.62v1.62h-1.62v-1.62zm-12.92 0v1.62H3.23v-1.62z"/>
  <path d="M17.77 14.54v1.61h-1.62v-1.61zm-12.92 0v1.61H3.23v-1.61zm12.92 1.61v1.62h-1.62v-1.62zm-12.92 0v1.62H3.23v-1.62zm0 1.62v1.61H3.23v-1.61zm12.92 0v1.61h-1.62v-1.61zm1.61 1.62V21h-1.61v-1.61zm-1.61 0V21h-1.62v-1.61zm-1.62 0V21h-1.61v-1.61zm-1.61 0V21h-1.62v-1.61zm-1.62 0V21h-1.61v-1.61zm-1.61 0V21H9.69v-1.61zm-1.62 0V21H8.08v-1.61zm-1.61 0V21H6.46v-1.61zm-1.62 0V21H4.85v-1.61zm-1.61 0V21H3.23v-1.61zm-1.62 0V21H1.62v-1.61zM21 21h-1.61v-1.61H21zm0-1.61h-1.61v-1.62H21zm0-1.62h-1.61v-1.62H21zm0-1.62h-1.61v-1.61H21zm0-1.61h-1.61v-1.62H21zm0-1.62h-1.61v-1.61H21zm0-1.61h-1.61V9.69H21z"/>
  <path d="M21 9.7h-1.61V8.07H21zm0-1.62h-1.61V6.46H21zm0-1.62h-1.61V4.85H21zm0-1.61h-1.61V3.23H21z"/>
</symbol>
</svg>
