<svg xmlns="http://www.w3.org/2000/svg" width="39" height="36" fill="none" viewBox="0 0 39 36">
  <path fill="#000" d="M12 6H9v3h3V6Z"/>
  <path fill="red" d="M12 9H9v3h3V9Zm3 3h-3v3h3v-3Zm3-3h-3v3h3V9Z"/>
  <path fill="#000" d="M15 6h-3v3h3V6ZM9 9H6v3h3V9Zm0 3H6v3h3v-3Zm0 3H6v3h3v-3Zm9-9h-3v3h3V6Z"/>
  <path fill="red" d="M12 15H9v3h3v-3Z"/>
  <path fill="#000" d="M12 18H9v3h3v-3Z"/>
  <path fill="red" d="M15 15h-3v3h3v-3Zm0 3h-3v3h3v-3Z"/>
  <path fill="#000" d="M15 21h-3v3h3v-3Z"/>
  <path fill="red" d="M18 15h-3v3h3v-3Zm0-3h-3v3h3v-3Zm0 9h-3v3h3v-3Zm0-3h-3v3h3v-3Z"/>
  <path fill="#000" d="M18 24h-3v3h3v-3Zm9-18h3v3h-3V6Z"/>
  <path fill="red" d="M27 9h3v3h-3V9Zm-3 0h3v3h-3V9Zm3 3h3v3h-3v-3Zm-3 0h3v3h-3v-3Zm-3-3h3v3h-3V9Z"/>
  <path fill="#000" d="M24 6h3v3h-3V6Zm6 3h3v3h-3V9Zm0 3h3v3h-3v-3Zm0 3h3v3h-3v-3Zm-9-9h3v3h-3V6Z"/>
  <path fill="red" d="M27 15h3v3h-3v-3Z"/>
  <path fill="#000" d="M27 18h3v3h-3v-3Z"/>
  <path fill="red" d="M24 15h3v3h-3v-3Zm0 3h3v3h-3v-3Z"/>
  <path fill="#000" d="M24 21h3v3h-3v-3Z"/>
  <path fill="red" d="M21 15h3v3h-3v-3Zm0-3h3v3h-3v-3Zm0 9h3v3h-3v-3Zm0-3h3v3h-3v-3Z"/>
  <path fill="#000" d="M21 24h3v3h-3v-3Zm0-15h-3v3h3V9Z"/>
  <path fill="red" d="M21 15h-3v3h3v-3Zm0-3h-3v3h3v-3Zm0 9h-3v3h3v-3Zm0-3h-3v3h3v-3Zm0 6h-3v3h3v-3Z"/>
  <path fill="#000" d="M21 27h-3v3h3v-3Z"/>
</svg>
